<svg xmlns="http://www.w3.org/2000/svg" xmlns:xlink="http://www.w3.org/1999/xlink" xmlns:lucid="lucid" width="1166.67" height="355.56"><g transform="translate(1166.6666666666667 0)" lucid:page-tab-id="0_0"><path d="M-1166.67 0H0v355.56h-1166.67z" fill="#fff"/><path d="M-559 88.2a3 3 0 0 1 3-3h130.95a3 3 0 0 1 3 3v206a3 3 0 0 1-3 3H-556a3 3 0 0 1-3-3z" stroke="#000" stroke-opacity="0" fill="#e3e3e3"/><use xlink:href="#a" transform="matrix(1,0,0,1,-554.0000000000005,90.18897637795276) translate(0 24.739583333333336)"/><path d="M-811 315.35h68v38.67h-68z" fill="none"/><use xlink:href="#b" transform="matrix(1,0,0,1,-811,315.35444444444454) translate(9.548828125 27.09548611111111)"/><path d="M-1131 15h240v60h-240z" fill="none"/><use xlink:href="#c" transform="matrix(1,0,0,1,-1131,15) translate(14.401041666666686 39.11458333333333)"/><use xlink:href="#d" transform="matrix(1,0,0,1,-1131,15) translate(66.02864583333334 39.11458333333333)"/><use xlink:href="#e" transform="matrix(1,0,0,1,-1131,15) translate(123.26822916666667 39.11458333333333)"/><use xlink:href="#f" transform="matrix(1,0,0,1,-1131,15) translate(174.3359375 39.11458333333333)"/><path d="M-1111 215.37a3 3 0 0 1 3-3h405.8a3 3 0 0 1 3 3v78.98a3 3 0 0 1-3 3H-1108a3 3 0 0 1-3-3z" stroke="#000" stroke-opacity="0" fill="#e3e3e3"/><use xlink:href="#a" transform="matrix(1,0,0,1,-1105.9999999999998,217.3721297215329) translate(0 24.739583333333336)"/><path d="M-1091 256.14a3 3 0 0 1 3-3h379.2a3 3 0 0 1 3 3v31.03a3 3 0 0 1-3 3H-1088a3 3 0 0 1-3-3z" fill="#a3a3a3"/><use xlink:href="#g" transform="matrix(1,0,0,1,-1085.9999999999998,258.1413779253236) translate(0 24.739583333333336)"/><path d="M-1124.5 84.76a.75.75 0 0 1 .75.75v226.35a.75.75 0 0 1-.75.75.75.75 0 0 1-.75-.75V85.5a.75.75 0 0 1 .75-.74z" stroke="#3a414a" stroke-width="1.5" fill="none"/><path d="M-671.4 312.08a.75.75 0 0 1-.74.75h-451.58a.75.75 0 0 1-.75-.75.75.75 0 0 1 .75-.75h451.58a.75.75 0 0 1 .75.75z" stroke="#3a414a" stroke-width="1.5" fill="none"/><path d="M-737.5 334.35h43.12M-737.5 334.35h-.5" stroke="#3a414a" fill="none"/><path d="M-679.62 334.35l-14.26 4.64v-9.28z" stroke="#3a414a" fill="#3a414a"/><path d="M-578.5 82.75a.75.75 0 0 1 .75.75v227.9a.75.75 0 0 1-.75.75.75.75 0 0 1-.75-.75V83.5a.75.75 0 0 1 .75-.75z" stroke="#3a414a" stroke-width="1.5" fill="none"/><path d="M-539 256.13a3 3 0 0 1 3-3h74a3 3 0 0 1 3 3v31.03a3 3 0 0 1-3 3h-74a3 3 0 0 1-3-3zM-539 211.36a3 3 0 0 1 3-3h95.14a3 3 0 0 1 3 3v31.03a3 3 0 0 1-3 3H-536a3 3 0 0 1-3-3zM-539 168a3 3 0 0 1 3-3h52.86a3 3 0 0 1 3 3v31.03a3 3 0 0 1-3 3H-536a3 3 0 0 1-3-3zM-474 168a3 3 0 0 1 3-3h34a3 3 0 0 1 3 3v31.03a3 3 0 0 1-3 3h-34a3 3 0 0 1-3-3zM-539 125a3 3 0 0 1 3-3h34a3 3 0 0 1 3 3v31.03a3 3 0 0 1-3 3h-34a3 3 0 0 1-3-3zM-492 125a3 3 0 0 1 3-3h34a3 3 0 0 1 3 3v31.03a3 3 0 0 1-3 3h-34a3 3 0 0 1-3-3zM-454 256.13a3 3 0 0 1 3-3h19.2a3 3 0 0 1 3 3v31.03a3 3 0 0 1-3 3H-451a3 3 0 0 1-3-3z" fill="#a3a3a3"/><path d="M-573 15h524v60h-524z" fill="none"/><use xlink:href="#c" transform="matrix(1,0,0,1,-573.0000000000002,15) translate(0 39.11458333333333)"/><use xlink:href="#d" transform="matrix(1,0,0,1,-573.0000000000002,15) translate(51.62760416666666 39.11458333333333)"/><use xlink:href="#h" transform="matrix(1,0,0,1,-573.0000000000002,15) translate(108.86718749999999 39.11458333333333)"/><use xlink:href="#i" transform="matrix(1,0,0,1,-573.0000000000002,15) translate(181.2109375 39.11458333333333)"/><use xlink:href="#j" transform="matrix(1,0,0,1,-573.0000000000002,15) translate(337.0442708333333 39.11458333333333)"/><g><path d="M-125.17 311.4a.75.75 0 0 1-.75.75H-577.5a.75.75 0 0 1-.75-.75.75.75 0 0 1 .75-.75h451.58a.75.75 0 0 1 .75.75z" stroke="#3a414a" stroke-width="1.5" fill="none"/></g><path d="M-262 315.35h68v38.67h-68z" fill="none"/><g><use xlink:href="#b" transform="matrix(1,0,0,1,-262,315.35444444444454) translate(9.548828125 27.09548611111111)"/></g><path d="M-193.5 334.57h31.9a.1.1 0 0 0 .1-.1.1.1 0 0 1 .1-.12h16.02" stroke="#3a414a" fill="none"/><path d="M-193.5 335.07h-.5v-1h.5z" stroke="#3a414a" stroke-width=".05" fill="#3a414a"/><path d="M-130.62 334.35l-14.26 4.64v-9.28z" stroke="#3a414a" fill="#3a414a"/><defs><path fill="#121215" d="M512-137c164 0 267-115 267-285v-1034h193v1031c4 276-186 445-460 445C234 20 52-130 53-402h192c0 167 97 265 267 265" id="k"/><path fill="#121215" d="M584 20C278 26 81-227 91-551c10-320 175-545 491-551 308-5 503 247 494 573-9 322-175 543-492 549zm-2-970c-208 0-305 185-305 421 0 216 106 398 307 398 211 0 307-186 307-420 0-214-109-399-309-399" id="l"/><path fill="#121215" d="M634-1102c292 0 422 254 422 573 0 298-143 547-420 549-137 0-242-48-317-145L310 0H140v-1536h185v573c75-93 178-139 309-139zm-44 965c207 0 281-175 281-413 0-224-79-395-283-395-122 0-210 57-263 170v468c57 113 145 170 265 170" id="m"/><g id="a"><use transform="matrix(0.013020833333333334,0,0,0.013020833333333334,0,0)" xlink:href="#k"/><use transform="matrix(0.013020833333333334,0,0,0.013020833333333334,14.713541666666668,0)" xlink:href="#l"/><use transform="matrix(0.013020833333333334,0,0,0.013020833333333334,29.921875,0)" xlink:href="#m"/></g><path fill="#3a414a" d="M1175-1298H707V0H516v-1298H49v-158h1126v158" id="n"/><path fill="#3a414a" d="M341 0H156v-1082h185V0zm-91-1264c-68 0-108-42-109-105 0-62 41-107 109-107s110 44 110 107-42 105-110 105" id="o"/><path fill="#3a414a" d="M1240-945c-141 0-250 95-250 227V0H804v-709c0-157-77-236-231-236-121 0-204 52-249 155V0H139v-1082h175l5 120c79-93 186-140 321-140 151 0 254 58 309 174 69-98 181-174 345-174 237 0 362 126 362 377V0h-185v-714c-2-159-67-231-231-231" id="p"/><path fill="#3a414a" d="M599-131c141 0 220-65 285-146l113 88C906-50 770 20 589 20 281 21 93-214 93-545c0-223 93-397 233-485 74-48 154-72 240-72 300 2 449 218 445 537v77H278c0 197 129 357 321 357zm227-509c-3-180-88-310-260-310-170 0-264 140-282 310h542" id="q"/><g id="b"><use transform="matrix(0.010850694444444444,0,0,0.010850694444444444,0,0)" xlink:href="#n"/><use transform="matrix(0.010850694444444444,0,0,0.010850694444444444,13.25954861111111,0)" xlink:href="#o"/><use transform="matrix(0.010850694444444444,0,0,0.010850694444444444,18.65234375,0)" xlink:href="#p"/><use transform="matrix(0.010850694444444444,0,0,0.010850694444444444,38.12934027777778,0)" xlink:href="#q"/></g><path fill="#3a414a" d="M529-221c123 0 188-94 188-227v-1008h300v1008c-7 294-194 463-488 468C232 25 38-138 40-430h302c1 138 52 209 187 209" id="r"/><path fill="#3a414a" d="M579 20C257 20 58-214 66-551c8-331 182-551 511-551 324 0 514 231 514 572 0 319-198 550-512 550zm-2-888c-169 0-222 141-222 338 0 181 61 317 224 317 170 0 223-137 223-338 0-178-64-317-225-317" id="s"/><path fill="#3a414a" d="M663-1102c295 0 423 246 423 571 0 313-131 551-421 551-117 0-211-45-281-135L371 0H111v-1536h289v551c67-78 154-117 263-117zm-71 889c164 0 209-139 205-339-3-189-44-315-207-315-92 0-155 38-190 113v427c35 76 99 114 192 114" id="t"/><g id="c"><use transform="matrix(0.013020833333333332,0,0,0.013020833333333332,0,0)" xlink:href="#r"/><use transform="matrix(0.013020833333333332,0,0,0.013020833333333332,14.895833333333332,0)" xlink:href="#s"/><use transform="matrix(0.013020833333333332,0,0,0.013020833333333332,29.973958333333332,0)" xlink:href="#t"/></g><path fill="#3a414a" d="M1052-393l142-689h279L1197 0H955L750-681 545 0H304L28-1082h279l141 688 198-688h209" id="u"/><path fill="#3a414a" d="M416 0H126v-1082h290V0zM271-1212c-92 0-162-61-162-150s68-149 162-149c93 0 162 60 162 149s-70 150-162 150" id="v"/><path fill="#3a414a" d="M457-330c2 83 25 111 111 112 32 0 60-2 85-7V-6c-57 17-115 26-175 26-203 0-310-102-310-307v-583H10v-212h158v-266h289v266h185v212H457v540" id="w"/><path fill="#3a414a" d="M750-685c-1-124-48-182-173-182-85 0-146 33-184 98V0H104v-1536h289v572c77-92 173-138 289-138 235 0 357 136 357 409V0H750v-685" id="x"/><g id="d"><use transform="matrix(0.013020833333333332,0,0,0.013020833333333332,0,0)" xlink:href="#u"/><use transform="matrix(0.013020833333333332,0,0,0.013020833333333332,19.596354166666664,0)" xlink:href="#v"/><use transform="matrix(0.013020833333333332,0,0,0.013020833333333332,26.666666666666664,0)" xlink:href="#w"/><use transform="matrix(0.013020833333333332,0,0,0.013020833333333332,35.67708333333333,0)" xlink:href="#x"/></g><path fill="#3a414a" d="M750-692c-1-124-48-174-173-175-81 0-142 35-183 104V0H105v-1082h272l9 125c77-97 181-145 311-145 244 0 342 151 342 403V0H750v-692" id="y"/><path fill="#3a414a" d="M1031-175C952-60 797 20 609 20 287 20 60-206 72-543c12-330 180-559 505-559 309 0 482 214 477 537v118H365c15 134 115 234 263 234 111 0 198-40 261-121zM770-644c5-139-62-226-194-224-130 1-191 97-208 224h402" id="z"/><g id="e"><use transform="matrix(0.013020833333333332,0,0,0.013020833333333332,0,0)" xlink:href="#s"/><use transform="matrix(0.013020833333333332,0,0,0.013020833333333332,15.078124999999998,0)" xlink:href="#y"/><use transform="matrix(0.013020833333333332,0,0,0.013020833333333332,30.013020833333332,0)" xlink:href="#z"/></g><path fill="#3a414a" d="M552-1102c254-4 435 134 435 383v469c1 103 15 180 43 233V0H738c-13-26-23-58-29-97C639-19 548 20 436 20 238 20 64-113 68-304c5-258 212-357 496-357h133c11-137-29-227-160-227-90 0-156 45-156 131H92c15-231 213-342 460-345zM357-325c0 76 61 124 142 124 88 0 168-45 198-105v-186H589c-152 2-232 51-232 167" id="A"/><path fill="#3a414a" d="M529-185c94 0 168-33 168-114 0-35-18-63-53-83s-91-39-168-55C219-491 90-600 90-765c0-208 203-337 432-337 246 0 451 124 453 349H686c-2-91-62-143-165-143-86 0-151 41-153 117 0 32 16 57 46 77 63 43 257 69 335 100 151 60 229 153 229 291C978-13 554 93 282-28 162-81 60-190 56-344h274c5 106 86 159 199 159" id="B"/><path fill="#3a414a" d="M504-434L400-330V0H111v-1536h289v851c106-137 222-264 333-397h347L689-631 1114 0H782" id="C"/><g id="f"><use transform="matrix(0.013020833333333332,0,0,0.013020833333333332,0,0)" xlink:href="#w"/><use transform="matrix(0.013020833333333332,0,0,0.013020833333333332,9.010416666666666,0)" xlink:href="#A"/><use transform="matrix(0.013020833333333332,0,0,0.013020833333333332,23.307291666666664,0)" xlink:href="#B"/><use transform="matrix(0.013020833333333332,0,0,0.013020833333333332,37.018229166666664,0)" xlink:href="#C"/></g><path fill="#121215" d="M1175-1298H707V0H516v-1298H49v-158h1126v158" id="D"/><path fill="#121215" d="M561-1102c238-4 403 126 403 351v498c0 99 13 178 38 237V0H808c-11-21-19-59-26-114C696-25 593 20 474 20c-199 0-368-130-365-320 4-251 214-359 490-356h180v-85c-1-135-86-212-229-212-115 0-232 67-233 171H131c20-205 206-316 430-320zM294-326c0 117 90 185 207 185 122 0 239-75 278-162v-222H634c-227 0-340 66-340 199" id="E"/><path fill="#121215" d="M538-131c121 0 232-49 232-156 0-50-20-88-56-117-73-60-334-92-420-143-92-55-162-110-162-238 0-190 192-317 400-317 223 0 414 129 413 338H759c0-108-110-186-227-186-119 0-215 53-215 159 0 45 18 78 53 101 76 52 331 90 416 139 98 57 169 115 169 251C955-92 760 20 538 20c-176 0-314-68-386-174-38-55-57-115-57-179h185c6 129 116 202 258 202" id="F"/><path fill="#121215" d="M442-501L326-380V0H141v-1536h185v929c135-169 291-317 436-475h225L566-630 1036 0H819" id="G"/><g id="g"><use transform="matrix(0.013020833333333334,0,0,0.013020833333333334,0,0)" xlink:href="#D"/><use transform="matrix(0.013020833333333334,0,0,0.013020833333333334,14.440104166666668,0)" xlink:href="#E"/><use transform="matrix(0.013020833333333334,0,0,0.013020833333333334,28.9453125,0)" xlink:href="#F"/><use transform="matrix(0.013020833333333334,0,0,0.013020833333333334,42.6953125,0)" xlink:href="#G"/></g><path fill="#3a414a" d="M741-689c-2-124-40-177-163-178-82 0-141 34-178 102V0H111v-1082h271l9 121c77-94 180-141 311-141 139 0 235 55 287 165 76-110 184-165 325-165 249 0 348 151 348 411V0h-290v-690c-2-123-39-176-163-177-87 0-147 41-180 124l1 743H741v-689" id="H"/><path fill="#3a414a" d="M515-409l200-673h310L590 168c-66 202-236 321-472 250V199c127 7 198-15 230-107l34-89L3-1082h311" id="I"/><g id="h"><use transform="matrix(0.013020833333333332,0,0,0.013020833333333332,0,0)" xlink:href="#H"/><use transform="matrix(0.013020833333333332,0,0,0.013020833333333332,23.085937499999996,0)" xlink:href="#A"/><use transform="matrix(0.013020833333333332,0,0,0.013020833333333332,37.38281249999999,0)" xlink:href="#y"/><use transform="matrix(0.013020833333333332,0,0,0.013020833333333332,52.31770833333333,0)" xlink:href="#I"/></g><path fill="#3a414a" d="M488 20C204 20 66-234 66-549c0-305 140-551 424-553 105 0 192 39 261 118v-552h290V0H780l-14-115C694-25 601 20 488 20zM355-528c0 176 51 314 207 314 89 0 152-38 189-113v-427c-36-75-98-113-187-113-139 0-209 113-209 339" id="J"/><path fill="#3a414a" d="M663-1102c295 0 422 250 422 571 0 300-141 549-420 551-109 0-198-38-265-114v510H111v-1498h268l10 106c70-84 161-126 274-126zm133 550c0-175-53-315-209-315-91 0-153 35-187 104v443c35 71 98 107 189 107 138 0 207-113 207-339" id="K"/><g id="i"><use transform="matrix(0.013020833333333332,0,0,0.013020833333333332,0,0)" xlink:href="#v"/><use transform="matrix(0.013020833333333332,0,0,0.013020833333333332,7.070312499999999,0)" xlink:href="#y"/><use transform="matrix(0.013020833333333332,0,0,0.013020833333333332,22.005208333333332,0)" xlink:href="#J"/><use transform="matrix(0.013020833333333332,0,0,0.013020833333333332,37.03125,0)" xlink:href="#z"/><use transform="matrix(0.013020833333333332,0,0,0.013020833333333332,51.4453125,0)" xlink:href="#K"/><use transform="matrix(0.013020833333333332,0,0,0.013020833333333332,66.45833333333333,0)" xlink:href="#z"/><use transform="matrix(0.013020833333333332,0,0,0.013020833333333332,80.87239583333333,0)" xlink:href="#y"/><use transform="matrix(0.013020833333333332,0,0,0.013020833333333332,95.80729166666666,0)" xlink:href="#J"/><use transform="matrix(0.013020833333333332,0,0,0.013020833333333332,110.83333333333333,0)" xlink:href="#z"/><use transform="matrix(0.013020833333333332,0,0,0.013020833333333332,125.24739583333333,0)" xlink:href="#y"/><use transform="matrix(0.013020833333333332,0,0,0.013020833333333332,140.18229166666666,0)" xlink:href="#w"/></g><g id="j"><use transform="matrix(0.013020833333333332,0,0,0.013020833333333332,0,0)" xlink:href="#w"/><use transform="matrix(0.013020833333333332,0,0,0.013020833333333332,9.010416666666666,0)" xlink:href="#A"/><use transform="matrix(0.013020833333333332,0,0,0.013020833333333332,23.307291666666664,0)" xlink:href="#B"/><use transform="matrix(0.013020833333333332,0,0,0.013020833333333332,37.018229166666664,0)" xlink:href="#C"/><use transform="matrix(0.013020833333333332,0,0,0.013020833333333332,51.26302083333333,0)" xlink:href="#B"/></g></defs></g></svg>