<svg xmlns="http://www.w3.org/2000/svg" xmlns:xlink="http://www.w3.org/1999/xlink" xmlns:lucid="lucid" width="1166.67" height="340.16"><g transform="translate(0 340.15748031496065)" lucid:page-tab-id="0_0"><path d="M0-340.16h1166.67V0H0z" fill="#fff"/><path d="M674.02-313.96a1 1 0 0 1 1-1h249.96a1 1 0 0 1 1 1V-26.2a1 1 0 0 1-1 1H675.02a1 1 0 0 1-1-1z" stroke="#000" stroke-opacity="0" fill="#9ad3ae"/><use xlink:href="#a" transform="matrix(1,0,0,1,680.3157480314959,-308.66062992125967) translate(3 24.739583333333332)"/><use xlink:href="#b" transform="matrix(1,0,0,1,680.3157480314959,-308.66062992125967) translate(124.43229166666667 24.739583333333332)"/><path d="M245.67-250.97a1 1 0 0 1 1-1H440a1 1 0 0 1 1 1v40.68a1 1 0 0 1-1 1H246.67a1 1 0 0 1-1-1z" stroke="#000" stroke-opacity="0" fill="#538ff7"/><use xlink:href="#c" transform="matrix(1,0,0,1,251.96929133858265,-245.66850393700784) translate(3 24.739583333333332)"/><use xlink:href="#d" transform="matrix(1,0,0,1,251.96929133858265,-245.66850393700784) translate(92.19270833333333 24.739583333333332)"/><path d="M245.67-201.87a1 1 0 0 1 1-1H440a1 1 0 0 1 1 1v40.67a1 1 0 0 1-1 1H246.67a1 1 0 0 1-1-1z" stroke="#000" stroke-opacity="0" fill="#e3e3e3"/><use xlink:href="#e" transform="matrix(1,0,0,1,251.96929133858265,-196.57401574803134) translate(3 24.739583333333332)"/><path d="M245.67-151.48a1 1 0 0 1 1-1H440a1 1 0 0 1 1 1v73.6a1 1 0 0 1-1 1H246.67a1 1 0 0 1-1-1z" stroke="#000" stroke-opacity="0" fill="#e3e3e3"/><use xlink:href="#f" transform="matrix(1,0,0,1,251.96929133858265,-146.18031496062974) translate(3 24.739583333333332)"/><use xlink:href="#g" transform="matrix(1,0,0,1,251.96929133858265,-146.18031496062974) translate(3 55.98958333333333)"/><path d="M614.86-167.93a6.84 6.84 0 0 0-.03-3.84l-11.27-37.5a2.7 2.7 0 0 0-2.57-1.9h-88.76a1.52 1.52 0 0 0-1.47 1.92l10.98 39.27a7.5 7.5 0 0 1 .04 3.86l-9.98 39.24a1.56 1.56 0 0 0 1.5 1.94h87.3a2.65 2.65 0 0 0 2.55-1.93z" stroke="#000" stroke-opacity="0" fill="#f6bd41"/><use xlink:href="#h" transform="matrix(1,0,0,1,510.2362204724409,-211.17322834645654) translate(24.358072916666668 52.61458333333333)"/><path d="M705.5-263.57a1 1 0 0 1 1-1h193.35a1 1 0 0 1 1 1v40.68a1 1 0 0 1-1 1H706.5a1 1 0 0 1-1-1z" stroke="#000" stroke-opacity="0" fill="#fff"/><use xlink:href="#i" transform="matrix(1,0,0,1,711.8118110236223,-258.26692913385824) translate(3 24.739583333333332)"/><path d="M705.5-213.17a1 1 0 0 1 1-1h193.35a1 1 0 0 1 1 1v40.67a1 1 0 0 1-1 1H706.5a1 1 0 0 1-1-1z" stroke="#000" stroke-opacity="0" fill="#fff"/><use xlink:href="#e" transform="matrix(1,0,0,1,711.8118110236223,-207.87322834645659) translate(3 24.739583333333332)"/><path d="M705.5-162.78a1 1 0 0 1 1-1h193.35a1 1 0 0 1 1 1v73.1a1 1 0 0 1-1 1H706.5a1 1 0 0 1-1-1z" stroke="#000" stroke-opacity="0" fill="#fff"/><use xlink:href="#j" transform="matrix(1,0,0,1,711.8118110236223,-157.479527559055) translate(3 24.739583333333332)"/><use xlink:href="#k" transform="matrix(1,0,0,1,711.8118110236223,-157.479527559055) translate(3 55.98958333333333)"/><path d="M705.5-79.96a1 1 0 0 1 1-1h193.35a1 1 0 0 1 1 1v40.67a1 1 0 0 1-1 1H706.5a1 1 0 0 1-1-1z" stroke="#000" stroke-opacity="0" fill="#fff"/><g><use xlink:href="#l" transform="matrix(1,0,0,1,711.8118110236223,-74.66299212598412) translate(3 24.739583333333332)"/></g><defs><path fill="#3a414a" d="M688-137c238 0 323-102 359-325h193c-32 297-228 482-552 482-361 0-569-299-569-680 0-197 8-360 73-497 88-186 257-317 513-319 316-2 509 195 535 488h-193c-31-212-118-330-342-330-272 0-397 224-393 523v141c-3 282 115 517 376 517" id="m"/><path fill="#3a414a" d="M584 20C278 26 81-227 91-551c10-320 175-545 491-551 308-5 503 247 494 573-9 322-175 543-492 549zm-2-970c-208 0-305 185-305 421 0 216 106 398 307 398 211 0 307-186 307-420 0-214-109-399-309-399" id="n"/><path fill="#3a414a" d="M589-945c-131 0-219 81-264 174V0H140v-1082h175l6 136c83-104 191-156 324-156 229 0 346 129 346 387V0H806v-716c-2-153-65-229-217-229" id="o"/><path fill="#3a414a" d="M456 20C285 20 205-92 206-268v-671H9v-143h197v-262h185v262h202v143H391v671c-9 125 92 149 207 118V0c-49 13-96 20-142 20" id="p"/><path fill="#3a414a" d="M561-1102c238-4 403 126 403 351v498c0 99 13 178 38 237V0H808c-11-21-19-59-26-114C696-25 593 20 474 20c-199 0-368-130-365-320 4-251 214-359 490-356h180v-85c-1-135-86-212-229-212-115 0-232 67-233 171H131c20-205 206-316 430-320zM294-326c0 117 90 185 207 185 122 0 239-75 278-162v-222H634c-227 0-340 66-340 199" id="q"/><path fill="#3a414a" d="M341 0H156v-1082h185V0zm-91-1264c-68 0-108-42-109-105 0-62 41-107 109-107s110 44 110 107-42 105-110 105" id="r"/><path fill="#3a414a" d="M599-131c141 0 220-65 285-146l113 88C906-50 770 20 589 20 281 21 93-214 93-545c0-223 93-397 233-485 74-48 154-72 240-72 300 2 449 218 445 537v77H278c0 197 129 357 321 357zm227-509c-3-180-88-310-260-310-170 0-264 140-282 310h542" id="s"/><path fill="#3a414a" d="M663-916c-163-27-288 18-338 148V0H140v-1082h180l3 125c61-97 147-145 258-145 36 0 63 5 82 14v172" id="t"/><g id="a"><use transform="matrix(0.013020833333333332,0,0,0.013020833333333332,0,0)" xlink:href="#m"/><use transform="matrix(0.013020833333333332,0,0,0.013020833333333332,17.356770833333332,0)" xlink:href="#n"/><use transform="matrix(0.013020833333333332,0,0,0.013020833333333332,32.565104166666664,0)" xlink:href="#o"/><use transform="matrix(0.013020833333333332,0,0,0.013020833333333332,47.27864583333333,0)" xlink:href="#p"/><use transform="matrix(0.013020833333333332,0,0,0.013020833333333332,55.98958333333333,0)" xlink:href="#q"/><use transform="matrix(0.013020833333333332,0,0,0.013020833333333332,70.49479166666666,0)" xlink:href="#r"/><use transform="matrix(0.013020833333333332,0,0,0.013020833333333332,76.96614583333333,0)" xlink:href="#o"/><use transform="matrix(0.013020833333333332,0,0,0.013020833333333332,91.6796875,0)" xlink:href="#s"/><use transform="matrix(0.013020833333333332,0,0,0.013020833333333332,105.80729166666667,0)" xlink:href="#t"/></g><path fill="#3a414a" d="M1240-945c-141 0-250 95-250 227V0H804v-709c0-157-77-236-231-236-121 0-204 52-249 155V0H139v-1082h175l5 120c79-93 186-140 321-140 151 0 254 58 309 174 69-98 181-174 345-174 237 0 362 126 362 377V0h-185v-714c-2-159-67-231-231-231" id="u"/><path fill="#3a414a" d="M521 20C240 20 96-239 96-550c0-303 147-552 427-552 132 0 235 47 309 140l9-120h169V-26c4 277-183 454-459 452-165-1-334-81-400-187l96-111c79 98 176 147 291 147 180 1 288-109 286-290v-93C750-23 649 20 521 20zm48-965c-209 0-287 178-287 416 0 217 86 392 285 392 117 0 202-53 257-159v-494c-57-103-142-155-255-155" id="v"/><g id="b"><use transform="matrix(0.013020833333333332,0,0,0.013020833333333332,0,0)" xlink:href="#r"/><use transform="matrix(0.013020833333333332,0,0,0.013020833333333332,6.471354166666666,0)" xlink:href="#u"/><use transform="matrix(0.013020833333333332,0,0,0.013020833333333332,29.843749999999996,0)" xlink:href="#q"/><use transform="matrix(0.013020833333333332,0,0,0.013020833333333332,44.34895833333333,0)" xlink:href="#v"/><use transform="matrix(0.013020833333333332,0,0,0.013020833333333332,59.30989583333333,0)" xlink:href="#s"/></g><path fill="#fff" d="M631-137c179 0 314-70 314-231 0-71-25-127-75-166s-141-77-272-115c-165-47-285-106-360-175s-112-154-112-255c0-245 231-397 495-397 206 0 369 89 449 218 43 68 65 142 65 223H942c0-184-129-283-321-283-172 0-299 76-301 236 0 59 26 109 76 150s135 78 256 113c205 59 345 116 436 256 35 53 50 119 50 193-2 256-231 398-507 390C333 12 90-129 80-422h193c0 187 160 285 358 285" id="w"/><path fill="#fff" d="M584 20C278 26 81-227 91-551c10-320 175-545 491-551 308-5 503 247 494 573-9 322-175 543-492 549zm-2-970c-208 0-305 185-305 421 0 216 106 398 307 398 211 0 307-186 307-420 0-214-109-399-309-399" id="x"/><path fill="#fff" d="M491 20c-241-1-355-148-355-398v-704h185v699c0 164 67 246 200 246 141 0 235-53 282-158v-787h185V0H812l-4-107C736-22 630 20 491 20" id="y"/><path fill="#fff" d="M663-916c-163-27-288 18-338 148V0H140v-1082h180l3 125c61-97 147-145 258-145 36 0 63 5 82 14v172" id="z"/><path fill="#fff" d="M277-555c0 244 77 420 297 424 127 2 249-93 255-210h175C980-127 805 20 574 20 258 20 81-222 92-562c11-319 164-533 481-540 237-5 426 165 431 392H829c-7-133-115-242-256-240-209 4-296 166-296 395" id="A"/><path fill="#fff" d="M599-131c141 0 220-65 285-146l113 88C906-50 770 20 589 20 281 21 93-214 93-545c0-223 93-397 233-485 74-48 154-72 240-72 300 2 449 218 445 537v77H278c0 197 129 357 321 357zm227-509c-3-180-88-310-260-310-170 0-264 140-282 310h542" id="B"/><g id="c"><use transform="matrix(0.013020833333333332,0,0,0.013020833333333332,0,0)" xlink:href="#w"/><use transform="matrix(0.013020833333333332,0,0,0.013020833333333332,15.820312499999998,0)" xlink:href="#x"/><use transform="matrix(0.013020833333333332,0,0,0.013020833333333332,31.028645833333332,0)" xlink:href="#y"/><use transform="matrix(0.013020833333333332,0,0,0.013020833333333332,45.72916666666666,0)" xlink:href="#z"/><use transform="matrix(0.013020833333333332,0,0,0.013020833333333332,54.505208333333314,0)" xlink:href="#A"/><use transform="matrix(0.013020833333333332,0,0,0.013020833333333332,68.46354166666666,0)" xlink:href="#B"/></g><path fill="#fff" d="M520 20C244 20 95-247 95-550c0-298 151-550 427-552 127 0 227 43 301 130v-564h185V0H838l-9-116C755-25 652 20 520 20zm48-965c-210 0-288 177-288 416 0 218 87 392 286 392 117 0 203-53 257-158v-497c-55-102-140-153-255-153" id="C"/><g id="d"><use transform="matrix(0.013020833333333332,0,0,0.013020833333333332,0,0)" xlink:href="#A"/><use transform="matrix(0.013020833333333332,0,0,0.013020833333333332,13.958333333333332,0)" xlink:href="#x"/><use transform="matrix(0.013020833333333332,0,0,0.013020833333333332,29.166666666666664,0)" xlink:href="#C"/><use transform="matrix(0.013020833333333332,0,0,0.013020833333333332,44.205729166666664,0)" xlink:href="#B"/></g><path fill="#3a414a" d="M973-380H363L226 0H28l556-1456h168L1309 0h-197zM421-538h495l-248-681" id="D"/><path fill="#3a414a" d="M538-131c121 0 232-49 232-156 0-50-20-88-56-117-73-60-334-92-420-143-92-55-162-110-162-238 0-190 192-317 400-317 223 0 414 129 413 338H759c0-108-110-186-227-186-119 0-215 53-215 159 0 45 18 78 53 101 76 52 331 90 416 139 98 57 169 115 169 251C955-92 760 20 538 20c-176 0-314-68-386-174-38-55-57-115-57-179h185c6 129 116 202 258 202" id="E"/><g id="e"><use transform="matrix(0.013020833333333332,0,0,0.013020833333333332,0,0)" xlink:href="#D"/><use transform="matrix(0.013020833333333332,0,0,0.013020833333333332,17.395833333333332,0)" xlink:href="#E"/><use transform="matrix(0.013020833333333332,0,0,0.013020833333333332,31.145833333333332,0)" xlink:href="#E"/><use transform="matrix(0.013020833333333332,0,0,0.013020833333333332,44.89583333333333,0)" xlink:href="#s"/><use transform="matrix(0.013020833333333332,0,0,0.013020833333333332,59.02343749999999,0)" xlink:href="#p"/><use transform="matrix(0.013020833333333332,0,0,0.013020833333333332,67.734375,0)" xlink:href="#E"/></g><path fill="#3a414a" d="M362-157h690V0H169v-1456h193v1299" id="F"/><path fill="#3a414a" d="M634-1102c292 0 422 254 422 573 0 298-143 547-420 549-137 0-242-48-317-145L310 0H140v-1536h185v573c75-93 178-139 309-139zm-44 965c207 0 281-175 281-413 0-224-79-395-283-395-122 0-210 57-263 170v468c57 113 145 170 265 170" id="G"/><path fill="#3a414a" d="M494-271l252-811h198L509 167C425 381 299 474 84 421V271c167 16 242-37 283-173l41-110L22-1082h202" id="H"/><g id="f"><use transform="matrix(0.013020833333333332,0,0,0.013020833333333332,0,0)" xlink:href="#F"/><use transform="matrix(0.013020833333333332,0,0,0.013020833333333332,14.348958333333332,0)" xlink:href="#r"/><use transform="matrix(0.013020833333333332,0,0,0.013020833333333332,20.8203125,0)" xlink:href="#G"/><use transform="matrix(0.013020833333333332,0,0,0.013020833333333332,35.78125,0)" xlink:href="#t"/><use transform="matrix(0.013020833333333332,0,0,0.013020833333333332,44.283854166666664,0)" xlink:href="#q"/><use transform="matrix(0.013020833333333332,0,0,0.013020833333333332,58.78906249999999,0)" xlink:href="#t"/><use transform="matrix(0.013020833333333332,0,0,0.013020833333333332,68.046875,0)" xlink:href="#H"/></g><path fill="#3a414a" d="M520 20C244 20 95-247 95-550c0-298 151-550 427-552 127 0 227 43 301 130v-564h185V0H838l-9-116C755-25 652 20 520 20zm48-965c-210 0-288 177-288 416 0 218 87 392 286 392 117 0 203-53 257-158v-497c-55-102-140-153-255-153" id="I"/><path fill="#3a414a" d="M632-1102c291 0 422 251 422 573 0 297-141 548-419 549-131 0-235-42-310-125v521H140v-1498h169l9 120c75-93 180-140 314-140zm-53 971c207 0 290-180 290-419 0-218-92-395-292-395-112 0-196 50-252 149v517c55 99 140 148 254 148" id="J"/><path fill="#3a414a" d="M277-555c0 244 77 420 297 424 127 2 249-93 255-210h175C980-127 805 20 574 20 258 20 81-222 92-562c11-319 164-533 481-540 237-5 426 165 431 392H829c-7-133-115-242-256-240-209 4-296 166-296 395" id="K"/><g id="g"><use transform="matrix(0.013020833333333332,0,0,0.013020833333333332,0,0)" xlink:href="#I"/><use transform="matrix(0.013020833333333332,0,0,0.013020833333333332,15.039062499999998,0)" xlink:href="#s"/><use transform="matrix(0.013020833333333332,0,0,0.013020833333333332,29.166666666666664,0)" xlink:href="#J"/><use transform="matrix(0.013020833333333332,0,0,0.013020833333333332,44.127604166666664,0)" xlink:href="#s"/><use transform="matrix(0.013020833333333332,0,0,0.013020833333333332,58.25520833333333,0)" xlink:href="#o"/><use transform="matrix(0.013020833333333332,0,0,0.013020833333333332,72.96875,0)" xlink:href="#I"/><use transform="matrix(0.013020833333333332,0,0,0.013020833333333332,88.0078125,0)" xlink:href="#s"/><use transform="matrix(0.013020833333333332,0,0,0.013020833333333332,102.13541666666667,0)" xlink:href="#o"/><use transform="matrix(0.013020833333333332,0,0,0.013020833333333332,116.84895833333334,0)" xlink:href="#K"/><use transform="matrix(0.013020833333333332,0,0,0.013020833333333332,130.80729166666669,0)" xlink:href="#r"/><use transform="matrix(0.013020833333333332,0,0,0.013020833333333332,137.27864583333334,0)" xlink:href="#s"/><use transform="matrix(0.013020833333333332,0,0,0.013020833333333332,151.40625,0)" xlink:href="#E"/></g><path fill="#3a414a" d="M1160-420C1159-145 963 0 674 0H169v-1456h476c294-1 476 112 476 388 0 153-99 253-216 302 146 38 255 167 255 346zM678-157c171 2 289-95 289-261 0-175-95-263-286-263H361v524h317zm250-912c-2-172-104-229-283-229H361v463h290c157 3 278-84 277-234" id="L"/><path fill="#3a414a" d="M491 20c-241-1-355-148-355-398v-704h185v699c0 164 67 246 200 246 141 0 235-53 282-158v-787h185V0H812l-4-107C736-22 630 20 491 20" id="M"/><path fill="#3a414a" d="M341 0H156v-1536h185V0" id="N"/><g id="h"><use transform="matrix(0.013020833333333332,0,0,0.013020833333333332,0,0)" xlink:href="#L"/><use transform="matrix(0.013020833333333332,0,0,0.013020833333333332,16.6015625,0)" xlink:href="#M"/><use transform="matrix(0.013020833333333332,0,0,0.013020833333333332,31.302083333333332,0)" xlink:href="#r"/><use transform="matrix(0.013020833333333332,0,0,0.013020833333333332,37.7734375,0)" xlink:href="#N"/><use transform="matrix(0.013020833333333332,0,0,0.013020833333333332,44.244791666666664,0)" xlink:href="#I"/></g><path fill="#3a414a" d="M704-1390c-164-38-297 28-288 194v114h231v143H416V0H231v-939H60v-143h171v-111c-12-274 208-416 483-347" id="O"/><g id="i"><use transform="matrix(0.013020833333333332,0,0,0.013020833333333332,0,0)" xlink:href="#D"/><use transform="matrix(0.013020833333333332,0,0,0.013020833333333332,17.395833333333332,0)" xlink:href="#t"/><use transform="matrix(0.013020833333333332,0,0,0.013020833333333332,27.070312499999996,0)" xlink:href="#p"/><use transform="matrix(0.013020833333333332,0,0,0.013020833333333332,35.78125,0)" xlink:href="#r"/><use transform="matrix(0.013020833333333332,0,0,0.013020833333333332,42.252604166666664,0)" xlink:href="#O"/><use transform="matrix(0.013020833333333332,0,0,0.013020833333333332,51.510416666666664,0)" xlink:href="#q"/><use transform="matrix(0.013020833333333332,0,0,0.013020833333333332,66.015625,0)" xlink:href="#K"/><use transform="matrix(0.013020833333333332,0,0,0.013020833333333332,79.97395833333333,0)" xlink:href="#p"/><use transform="matrix(0.013020833333333332,0,0,0.013020833333333332,88.68489583333333,0)" xlink:href="#E"/></g><path fill="#3a414a" d="M631-137c179 0 314-70 314-231 0-71-25-127-75-166s-141-77-272-115c-165-47-285-106-360-175s-112-154-112-255c0-245 231-397 495-397 206 0 369 89 449 218 43 68 65 142 65 223H942c0-184-129-283-321-283-172 0-299 76-301 236 0 59 26 109 76 150s135 78 256 113c205 59 345 116 436 256 35 53 50 119 50 193-2 256-231 398-507 390C333 12 90-129 80-422h193c0 187 160 285 358 285" id="P"/><g id="j"><use transform="matrix(0.013020833333333332,0,0,0.013020833333333332,0,0)" xlink:href="#P"/><use transform="matrix(0.013020833333333332,0,0,0.013020833333333332,15.820312499999998,0)" xlink:href="#H"/><use transform="matrix(0.013020833333333332,0,0,0.013020833333333332,28.437499999999996,0)" xlink:href="#E"/><use transform="matrix(0.013020833333333332,0,0,0.013020833333333332,42.18749999999999,0)" xlink:href="#p"/><use transform="matrix(0.013020833333333332,0,0,0.013020833333333332,50.89843749999999,0)" xlink:href="#s"/><use transform="matrix(0.013020833333333332,0,0,0.013020833333333332,65.02604166666666,0)" xlink:href="#u"/></g><path fill="#3a414a" d="M442-501L326-380V0H141v-1536h185v929c135-169 291-317 436-475h225L566-630 1036 0H819" id="Q"/><g id="k"><use transform="matrix(0.013020833333333332,0,0,0.013020833333333332,0,0)" xlink:href="#J"/><use transform="matrix(0.013020833333333332,0,0,0.013020833333333332,14.960937499999998,0)" xlink:href="#q"/><use transform="matrix(0.013020833333333332,0,0,0.013020833333333332,29.466145833333332,0)" xlink:href="#K"/><use transform="matrix(0.013020833333333332,0,0,0.013020833333333332,43.42447916666666,0)" xlink:href="#Q"/><use transform="matrix(0.013020833333333332,0,0,0.013020833333333332,56.940104166666664,0)" xlink:href="#q"/><use transform="matrix(0.013020833333333332,0,0,0.013020833333333332,71.44531249999999,0)" xlink:href="#v"/><use transform="matrix(0.013020833333333332,0,0,0.013020833333333332,86.40624999999999,0)" xlink:href="#s"/><use transform="matrix(0.013020833333333332,0,0,0.013020833333333332,100.53385416666666,0)" xlink:href="#E"/></g><path fill="#3a414a" d="M1161-1018c0 201-122 330-278 388l342 618V0h-206L703-589H361V0H168v-1456h482c310-2 511 139 511 438zm-193 0c0-187-120-280-313-280H361v552h295c179 3 313-101 312-272" id="R"/><g id="l"><use transform="matrix(0.013020833333333332,0,0,0.013020833333333332,0,0)" xlink:href="#R"/><use transform="matrix(0.013020833333333332,0,0,0.013020833333333332,16.419270833333332,0)" xlink:href="#M"/><use transform="matrix(0.013020833333333332,0,0,0.013020833333333332,31.119791666666664,0)" xlink:href="#o"/><use transform="matrix(0.013020833333333332,0,0,0.013020833333333332,45.83333333333333,0)" xlink:href="#p"/><use transform="matrix(0.013020833333333332,0,0,0.013020833333333332,54.54427083333333,0)" xlink:href="#r"/><use transform="matrix(0.013020833333333332,0,0,0.013020833333333332,61.01562499999999,0)" xlink:href="#u"/><use transform="matrix(0.013020833333333332,0,0,0.013020833333333332,84.38802083333333,0)" xlink:href="#s"/></g></defs></g></svg>